<?xml version="1.0" encoding="iso-8859-1"?>
<!-- Generator: Adobe Illustrator 16.0.0, SVG Export Plug-In . SVG Version: 6.00 Build 0)  -->
<!DOCTYPE svg PUBLIC "-//W3C//DTD SVG 1.1//EN" "http://www.w3.org/Graphics/SVG/1.1/DTD/svg11.dtd">
<svg version="1.1" id="Capa_1" xmlns="http://www.w3.org/2000/svg" xmlns:xlink="http://www.w3.org/1999/xlink" x="0px" y="0px"
	 width="800px" height="800px" fill="white" viewBox="0 0 800 800" style="enable-background:new 0 0 800 800;" xml:space="preserve">
<g>
	<path d="M214.418,263.604v463.304h131.209V574.348h108.967V726.91h131.211V263.604L400.111,139.322L214.418,263.604z
		 M334.729,552.554h-65.38v-65.382h65.38V552.554z M334.729,454.482h-65.38v-65.376h65.38V454.482z M334.729,356.414h-65.38v-65.382
		h65.38V356.414z M465.49,291.032h65.383v65.382H465.49V291.032z M465.49,389.105h65.383v65.376H465.49V389.105z M465.49,487.172
		h65.383v65.382H465.49V487.172z M432.805,552.554h-65.384v-65.382h65.384V552.554z M432.805,454.482h-65.384v-65.376h65.384
		V454.482z M432.805,356.414h-65.384v-65.382h65.384V356.414z"/>
	<polygon points="394.047,117.16 406.176,117.16 597.959,245.506 658.913,245.506 400.111,73.09 141.31,245.506 202.262,245.506
		"/>
	<path d="M783.654,452.672H616.572v274.236h167.082V452.672L783.654,452.672z M732.805,649.501H667.43V584.12h65.375V649.501z
		 M732.805,552.554H667.43v-65.382h65.375V552.554z"/>
	<rect x="616.572" y="411.325" width="183.428" height="19.555"/>
	<path d="M183.43,452.672H16.344v274.236H183.43V452.672z M132.572,649.501H67.191V584.12h65.381V649.501L132.572,649.501z
		 M132.572,552.554H67.191v-65.382h65.381V552.554L132.572,552.554z"/>
	<rect y="411.325" width="183.43" height="19.555"/>
</g>
</svg>
