<?xml version="1.0" encoding="iso-8859-1"?>
<!-- Generator: Adobe Illustrator 16.0.0, SVG Export Plug-In . SVG Version: 6.00 Build 0)  -->
<!DOCTYPE svg PUBLIC "-//W3C//DTD SVG 1.1//EN" "http://www.w3.org/Graphics/SVG/1.1/DTD/svg11.dtd">
<svg version="1.1" id="Capa_1" xmlns="http://www.w3.org/2000/svg" xmlns:xlink="http://www.w3.org/1999/xlink" x="0px" y="0px"
	 width="785.899px" height="785.898px" viewBox="0 0 785.899 785.898" style="enable-background:new 0 0 785.899 785.898;fill:white;"
	 xml:space="preserve">
<g>
	<g>
		<path d="M724.438,676.65L678.79,538.84c52.713-42.533,45.291-277.765,45.291-277.765H678.79
			c2.662,85.242-18.537,189.136-18.537,189.136c-29.188,87.906-45.396,73.846-45.396,73.846h-167.83l7.992,38.035l175.818-2.66
			c77.258,162.502,0,183.793,0,183.793s-274.383,0.014-340.99-2.639c-4.665-0.189-9.062-0.516-13.195-0.938
			c-54.85-5.742-72.044-50.137-72.044-50.137V396.939h221.102v-34.638L60.756,325.011v61.265l93.232,7.996l-2.661,295.242
			c0,100.77,122.538,96.354,122.538,96.354l378.288,0.031C737.395,785.9,724.438,676.65,724.438,676.65z"/>
		<path d="M558.911,149.19c41.193,0,74.588-33.401,74.588-74.597C633.499,33.401,600.104,0,558.911,0
			c-41.195,0-74.588,33.4-74.588,74.593C484.323,115.788,517.715,149.19,558.911,149.19z"/>
		<path d="M316.174,328.227h131.842c3.945,0,7.758-1.452,10.691-4.089l113.447-102.145l33.84,184.439l-43.549,69.02H356.298
			c-8.454,0-15.446,6.586-15.954,15.02l-10.559,175.52H276.05c-8.828,0-15.981,7.166-15.981,15.982
			c0,8.822,7.155,15.98,15.981,15.98h68.79c8.452,0,15.445-6.582,15.952-15.031l10.562-175.506h199.902
			c5.486,0,10.594-2.809,13.521-7.459l51.586-81.729c2.139-3.402,2.928-7.48,2.201-11.426l-40.129-218.712
			c-1.049-5.684-5.09-10.384-10.568-12.242c-5.471-1.839-11.527-0.621-15.844,3.248L441.883,296.26H316.174
			c-8.824,0-15.981,7.163-15.981,15.984C300.192,321.079,307.35,328.227,316.174,328.227z"/>
	</g>
</g>
<g>
</g>
<g>
</g>
<g>
</g>
<g>
</g>
<g>
</g>
<g>
</g>
<g>
</g>
<g>
</g>
<g>
</g>
<g>
</g>
<g>
</g>
<g>
</g>
<g>
</g>
<g>
</g>
<g>
</g>
</svg>
